inDegrees=no
num_controls=7
num_derivatives=13
num_iterations=114
num_multipliers=7
num_parameters=0
num_slacks=7
num_states=26
objective=5.436661
objective_accelerations=0.536062
objective_balance=0.119181
objective_effort=0.372379
objective_height=4.388541
objective_ligament=0.020498
solver_duration=1305.980104
status=Solve_Succeeded
success=true
DataType=double
version=3
OpenSimVersion=4.4-2022-07-23-0e9fedc
endheader
time	/jointset/ground_pelvis/pelvis_tilt/value	/jointset/ground_pelvis/pelvis_tx/value	/jointset/ground_pelvis/pelvis_ty/value	/jointset/hip_l/hip_flexion_l/value	/jointset/hip_l/hip_adduction_l/value	/jointset/hip_l/hip_rotation_l/value	/jointset/back/lumbar_extension/value	/jointset/patellofemoral_l/patellar_flexion_l/value	/jointset/knee_l/knee_flexion_l/value	/jointset/knee_l/knee_adduction_l/value	/jointset/knee_l/knee_rotation_l/value	/jointset/ankle_l/ankle_angle_l/value	/jointset/subtalar_l/subtalar_angle_l/value	/jointset/ground_pelvis/pelvis_tilt/speed	/jointset/ground_pelvis/pelvis_tx/speed	/jointset/ground_pelvis/pelvis_ty/speed	/jointset/hip_l/hip_flexion_l/speed	/jointset/hip_l/hip_adduction_l/speed	/jointset/hip_l/hip_rotation_l/speed	/jointset/back/lumbar_extension/speed	/jointset/patellofemoral_l/patellar_flexion_l/speed	/jointset/knee_l/knee_flexion_l/speed	/jointset/knee_l/knee_adduction_l/speed	/jointset/knee_l/knee_rotation_l/speed	/jointset/ankle_l/ankle_angle_l/speed	/jointset/subtalar_l/subtalar_angle_l/speed	/forceset/tau_hip_flexion_l	/forceset/tau_hip_adduction_l	/forceset/tau_hip_rotation_l	/forceset/tau_knee_flexion_l	/forceset/tau_ankle_angle_l	/forceset/tau_subtalar_angle_l	/forceset/tau_lumbar_extension	lambda_cid13_p0	lambda_cid13_p1	lambda_cid13_p2	lambda_cid13_p3	lambda_cid13_p4	lambda_cid13_p5	lambda_cid14_p0	/jointset/ground_pelvis/pelvis_tilt/accel	/jointset/ground_pelvis/pelvis_tx/accel	/jointset/ground_pelvis/pelvis_ty/accel	/jointset/hip_l/hip_flexion_l/accel	/jointset/hip_l/hip_adduction_l/accel	/jointset/hip_l/hip_rotation_l/accel	/jointset/back/lumbar_extension/accel	/jointset/patellofemoral_l/patellar_flexion_l/accel	/jointset/knee_l/knee_flexion_l/accel	/jointset/knee_l/knee_adduction_l/accel	/jointset/knee_l/knee_rotation_l/accel	/jointset/ankle_l/ankle_angle_l/accel	/jointset/subtalar_l/subtalar_angle_l/accel	gamma_cid13_p0	gamma_cid13_p1	gamma_cid13_p2	gamma_cid13_p3	gamma_cid13_p4	gamma_cid13_p5	gamma_cid14_p0
0.5	-0.3670679701844622	-0.01901333397193067	0.7882377609039182	1.104075587119119	-0.3069540522673476	-0.03978115607079837	-0.3118472323705496	0.6927100469237182	0.6927100469235375	-0.172656139605766	0.174378543610449	0.127942590043303	-0.02762702833818825	-0.5337512345175254	-0.1624247216180712	-0.4142524872605811	1.97464679573166	-0.0223290221188652	0.6336106970683356	-0.6359497331199082	1.796101550921083	1.796101550921458	-0.006974532156463614	0.001068371228252793	0.4639583922098148	0.04957708213130549	-0.203037972628461	0.03157476682019981	-0.02181506820400133	-0.2042919533217415	0.06355977942160809	0.04224662426021957	0.193069532824861	-17.77591763053941	-18.80134062092771	6.668334114203488	2.776335214962065	-606.8178050155825	-57.5419212665804	-28.08911388405058	0.4287304338903468	0.4219622754121641	-0.332890643067384	-1.158505841465693	0.5857627234545444	-0.3806846151411586	1.440163042821684	-1.083478454696665	-1.083478454696544	0.02008301220665901	-0.01526281862839857	-0.3351749110317614	0.5711194335196295	-3.265080755052463e-07	-1.012319162387495e-06	1.608983907410542e-06	8.896308709470032e-08	-3.807240715440387e-07	-5.729112323839121e-07	-3.294424334060354e-07
0.51	-0.3723829165793756	-0.0206162694916316	0.7840794617397926	1.123760506243853	-0.3071495691012988	-0.03346390985746622	-0.3181344833823235	0.7106137904099494	0.7106137904097639	-0.1727279861390937	0.1743887497899511	0.1325641245475035	-0.02710447492962192	-0.5291723241305594	-0.1581470193346818	-0.4173233824245191	1.962075386270164	-0.0167935637494563	0.6297489846761105	-0.6214255897184932	1.784405576455032	1.784405576455307	-0.007382914215495073	0.0009811543839706078	0.4602759266395344	0.05491365594737849	-0.2097814853249537	0.03253987729219871	-0.02189565978507096	-0.2055430259959381	0.0609258160309729	0.04279617308006925	0.1984751499467688	-18.79308353932086	-18.77010181245952	6.558484572267738	3.103040055004425	-610.4411208387008	-57.13736306411328	-27.04236915907591	0.482290426894775	0.4330061864208089	-0.2816779220835466	-1.34575347233669	0.5343774613846107	-0.4026679040709213	1.469771915910918	-1.248821910585376	-1.248821910600189	-0.06956699333163172	-0.004574441291703308	-0.3956815395086047	0.5118622020628425	-3.534737722548144e-07	-8.547652660984386e-07	1.744217977316481e-06	1.289597836451846e-07	-3.953011341737397e-07	-5.192980676053734e-07	-3.368181989665505e-07
0.52	-0.3776501100532607	-0.02217596159217427	0.779892955830222	1.143311852279206	-0.3072903433380099	-0.02718803143867742	-0.3242742465746605	0.7283933411578979	0.7283933411577325	-0.1728035701286003	0.1743982591362641	0.1371466545640947	-0.02652916861361266	-0.5242006503117653	-0.1537760377864189	-0.4198938363495583	1.947932177854898	-0.01138050267195346	0.6253371381715469	-0.6064521692327098	1.77126300326793	1.771263003268106	-0.007722023409472292	0.0009290045811233673	0.456157494689957	0.06012766361993326	-0.2165249980215029	0.03350498776399875	-0.02197625136533071	-0.2067940986703198	0.05829185264023918	0.04334572189967516	0.2038807670686951	-19.81183850305801	-18.74277641152633	6.454048222272238	3.402415218432067	-614.1154820891952	-56.81225918684078	-25.99442694311164	0.5072831202558273	0.4406181283871095	-0.2328023952875826	-1.472865632219702	0.5612832650734699	-0.4907114376085938	1.530018459695227	-1.372798198906866	-1.372798198906679	0.03393758521750564	-0.008249410341623124	-0.4223681868908393	0.5466062048161097	-3.140761372182858e-07	-7.875455517283505e-07	1.569196714522752e-06	1.11372779667922e-07	-3.510549438727375e-07	-4.517719431310754e-07	-3.050079174018257e-07
0.53	-0.3828657391504659	-0.02369152039428943	0.7756832722294309	1.162714173740813	-0.3073774616681116	-0.02095911582098092	-0.3302620519886509	0.7460344495817649	0.7460344495816993	-0.1728817514695383	0.1744074377595616	0.1416859633073982	-0.02590217090542277	-0.5188633605415894	-0.1493237437653622	-0.4219549656404475	1.932274938529698	-0.006070793333239625	0.6203686123820218	-0.5910448077701322	1.756719526571255	1.756719526571422	-0.007914378351828712	0.0009082484848166588	0.4516341288956303	0.06524235129583036	-0.2231177200864035	0.03422619085707523	-0.02204488544081666	-0.2082767387215512	0.0559016794493768	0.0437588131234178	0.2091521277684108	-20.76122981333937	-18.66653386095844	6.33975730145931	3.693500428381638	-617.8548599143461	-56.44512663561543	-24.94616595400722	0.5561921435215265	0.4493522972928054	-0.1796460335253921	-1.650767995561546	0.5115279802945875	-0.5117905895360971	1.555710858471122	-1.530937985493903	-1.530937985495365	-0.04589253467240218	0.0009428643825779002	-0.4778487999920906	0.489417892730394	-2.809751381987472e-07	-7.162467739848823e-07	1.42568015651975e-06	9.833762647050662e-08	-3.122369059824702e-07	-3.896219126187978e-07	-2.775486004460119e-07
0.54	-0.3880261473023429	-0.02516219280452785	0.7714556017682233	1.181952199826588	-0.307412340262412	-0.0147822589492432	-0.3360938606142284	0.7635229601225699	0.7635229601226092	-0.1729618704600079	0.1744163951366409	0.1461779327878877	-0.02522492275172322	-0.5131564612464686	-0.1447987594110726	-0.4234912084328007	1.915073102688877	-0.0009325555134729075	0.6149253889959991	-0.5752528115502821	1.740743426656727	1.740743426656883	-0.008109553322599657	0.0008847553348045501	0.4466896421297641	0.07017775272189331	-0.2297104421514017	0.03494739394989572	-0.02211351951554761	-0.209759378772963	0.05351150625840153	0.04417190434684528	0.2144234884681145	-21.71381745357085	-18.59317483552321	6.229860212810225	3.966731927020378	-621.6650142987423	-56.14733077173643	-23.89827359669118	0.5812050252446817	0.4551561950339213	-0.1278250955803131	-1.781784935343682	0.5269889612842052	-0.58565095690786	1.606945411149576	-1.659322842477706	-1.659322842477604	0.03337357953462948	-0.008796821082933358	-0.5065923811984014	0.5107489548494297	-2.548406300916232e-07	-6.40434989955972e-07	1.317019867646913e-06	9.033856349760327e-08	-2.794244835253566e-07	-3.334199009581172e-07	-2.549031166745252e-07
0.55	-0.3931277396775437	-0.02658730315523138	0.7672152005719869	1.201010776380272	-0.307396551563564	-0.008662242940315274	-0.3417658661666201	0.7808448026194463	0.7808448026194396	-0.1730435439483607	0.1744250740814033	0.1506185018933997	-0.02449904869707998	-0.5071040478680084	-0.1402157223207288	-0.4244990968582719	1.896396308384432	0.004060336300570684	0.6090016841212454	-0.559095097845334	1.723397330546222	1.723397330546307	-0.008220323245355373	0.0008522401400985043	0.4413598307489647	0.07496490140415281	-0.2361487728047063	0.03554082280682026	-0.02216433971214361	-0.2113430768006114	0.05124278799308631	0.04441830030865167	0.2195439738599872	-22.63101159881321	-18.44935139578949	6.103855476996095	4.257706593198296	-625.4418473115213	-55.75093096704315	-22.85165500497301	0.6259286926277453	0.4610329230312208	-0.07383292782313478	-1.947543324474603	0.4808177687771363	-0.6073679922352082	1.628164512198731	-1.806365811387405	-1.806365811398283	-0.03262105967603986	-0.0005514325265051699	-0.5558336296256492	0.4578223177317718	-2.309116291481055e-07	-5.660241593482596e-07	1.217919957861914e-06	8.378468155757124e-08	-2.497368452447642e-07	-2.806421546106285e-07	-2.337526031303927e-07
0.5600000000000001	-0.3981670740792632	-0.02796635204363178	0.7629674080491368	1.219875201661619	-0.3073317582511057	-0.002603791528070741	-0.3472746985495543	0.7979863615920167	0.7979863615919416	-0.1731261888922478	0.1744334133614171	0.1550038412624775	-0.0237262782570505	-0.5007048665503032	-0.1355864669504461	-0.424969473755468	1.876242848220818	0.008868367207164754	0.6026124696674303	-0.5426181776591431	1.704686721793688	1.704686721793699	-0.008303844427912861	0.0008168223909023949	0.4356436948439701	0.07955702979912915	-0.2425871034580142	0.03613425166363476	-0.0222151599087269	-0.212926774828297	0.04897406972772066	0.04466469627032301	0.2246644592518917	-23.55283402941674	-18.30749726933471	5.981340830708286	4.538433993948108	-629.3068287516833	-55.41704124971201	-21.80753096877944	0.6505586130935214	0.4643998510218996	-0.02032278992525281	-2.077118107177054	0.4900167797944202	-0.6787528727199189	1.670786707397978	-1.932225370883989	-1.932225370884015	0.0388233275743376	-0.009377331981214113	-0.5838572860371005	0.4717448973929759	-2.096292368009154e-07	-4.932944728459848e-07	1.130292502982319e-06	7.896501685698472e-08	-2.23798947975997e-07	-2.319735266389698e-07	-2.143960538590851e-07
0.5700000000000001	-0.4031407747237254	-0.0292989233606644	0.7587176035071119	1.238530949101031	-0.3072197171829515	0.003388469376317518	-0.3526172135785455	0.8149341893222545	0.8149341893222423	-0.1732092790964968	0.1744413270938049	0.1593302060957861	-0.02290845719514273	-0.4939808266643942	-0.1309241191383105	-0.4249000298869704	1.854669821204402	0.01350442158116264	0.5957677362946452	-0.5258424800309199	1.684660125296239	1.684660125296024	-0.008313769811378095	0.0007679796923154558	0.4295693414338648	0.08396815841905851	-0.2488455001982479	0.03655595862173416	-0.02224525776571404	-0.21458230139915	0.04681876190067707	0.04480370744021785	0.2296131683133357	-24.43719531740552	-18.12325389662614	5.849427230510457	4.828151384351903	-633.0913109026168	-55.038608394655	-20.76728863370847	0.6914708843044688	0.4677190922857561	0.03424686435691765	-2.232943781051394	0.4449686545712387	-0.6983108613666512	1.68731350639152	-2.070640943533098	-2.070640943566917	-0.02086736862955728	-0.002547067979667498	-0.6282165171187505	0.4198884722422194	-1.887117528297829e-07	-4.235235885113874e-07	1.042868619874756e-06	7.40832249250185e-08	-1.989841599451591e-07	-1.864747150767121e-07	-1.952417444116125e-07
